<?xml version="1.0" encoding="utf-8"?>
<!-- Generator: Adobe Illustrator 18.1.1, SVG Export Plug-In . SVG Version: 6.00 Build 0)  -->
<!DOCTYPE svg PUBLIC "-//W3C//DTD SVG 1.1//EN" "http://www.w3.org/Graphics/SVG/1.1/DTD/svg11.dtd">
<svg version="1.1" id="Layer_1" xmlns="http://www.w3.org/2000/svg" xmlns:xlink="http://www.w3.org/1999/xlink" x="0px" y="0px"
	 viewBox="0 0 128 128" enable-background="new 0 0 128 128" xml:space="preserve">
<g>
	<g>
		<defs>
			<path id="SVGID_1_" d="M107.3,67.3c0,24.5-19.9,44.4-44.4,44.4c-24.5,0-44.4-19.9-44.4-44.4c0-24.5,19.9-44.4,44.4-44.4
				C87.4,22.9,107.3,42.8,107.3,67.3"/>
		</defs>
		<clipPath id="SVGID_2_">
			<use xlink:href="#SVGID_1_"  overflow="visible"/>
		</clipPath>
		<rect x="10.4" y="14.7" clip-path="url(#SVGID_2_)" fill="#F8D846" width="105.1" height="105.1"/>
	</g>
	<g>
		<defs>
			<polygon id="SVGID_3_" points="23.1,78.4 44.7,50.8 68.2,82.1 			"/>
		</defs>
		<clipPath id="SVGID_4_">
			<use xlink:href="#SVGID_3_"  overflow="visible"/>
		</clipPath>
		<rect x="14.9" y="42.6" clip-path="url(#SVGID_4_)" fill="#41B168" width="61.5" height="47.6"/>
	</g>
	<g>
		<defs>
			<polygon id="SVGID_5_" points="49.6,78.9 77.6,43.1 102.8,77.9 			"/>
		</defs>
		<clipPath id="SVGID_6_">
			<use xlink:href="#SVGID_5_"  overflow="visible"/>
		</clipPath>
		<rect x="41.4" y="35" clip-path="url(#SVGID_6_)" fill="#20A362" width="69.6" height="52.1"/>
	</g>
	<g>
		<defs>
			<circle id="SVGID_7_" cx="62.9" cy="67.4" r="44.4"/>
		</defs>
		<clipPath id="SVGID_8_">
			<use xlink:href="#SVGID_7_"  overflow="visible"/>
		</clipPath>
		<g clip-path="url(#SVGID_8_)" enable-background="new    ">
			<g>
				<defs>
					<rect id="SVGID_9_" x="17.4" y="54.3" width="91.5" height="58.8"/>
				</defs>
				<clipPath id="SVGID_10_">
					<use xlink:href="#SVGID_9_"  overflow="visible"/>
				</clipPath>
				<g clip-path="url(#SVGID_10_)">
					<defs>
						<rect id="SVGID_11_" x="17.4" y="78.8" width="94.8" height="36"/>
					</defs>
					<clipPath id="SVGID_12_">
						<use xlink:href="#SVGID_11_"  overflow="visible"/>
					</clipPath>
					<g clip-path="url(#SVGID_12_)">
						<defs>
							<rect id="SVGID_13_" x="17.4" y="21.6" width="91.5" height="91.5"/>
						</defs>
						<clipPath id="SVGID_14_">
							<use xlink:href="#SVGID_13_"  overflow="visible"/>
						</clipPath>
						<rect x="9.2" y="70.7" clip-path="url(#SVGID_14_)" fill="#3F8CF4" width="111.2" height="52.3"/>
					</g>
				</g>
				<g clip-path="url(#SVGID_10_)">
					<defs>
						<rect id="SVGID_15_" x="17.4" y="21.6" width="91.5" height="91.5"/>
					</defs>
					<clipPath id="SVGID_16_">
						<use xlink:href="#SVGID_15_"  overflow="visible"/>
					</clipPath>
					
						<rect x="17.4" y="78.8" clip-path="url(#SVGID_16_)" fill="none" stroke="#EEEEEE" stroke-width="4.9037" stroke-miterlimit="10" width="94.8" height="36"/>
				</g>
			</g>
		</g>
	</g>
	<g>
		<defs>
			<circle id="SVGID_17_" cx="100.7" cy="78.8" r="9.8"/>
		</defs>
		<clipPath id="SVGID_18_">
			<use xlink:href="#SVGID_17_"  overflow="visible"/>
		</clipPath>
		<rect x="82.8" y="60.8" clip-path="url(#SVGID_18_)" fill="#DC4A3D" width="36" height="36"/>
	</g>
	<g>
		<defs>
			<circle id="SVGID_19_" cx="100.7" cy="78.8" r="4.9"/>
		</defs>
		<clipPath id="SVGID_20_">
			<use xlink:href="#SVGID_19_"  overflow="visible"/>
		</clipPath>
		<rect x="87.7" y="65.7" clip-path="url(#SVGID_20_)" fill="#812A28" width="26.2" height="26.2"/>
	</g>
	<g>
		<defs>
			<path id="SVGID_21_" d="M50.1,24.1c0-8.8-8.1-15.6-17.3-13.5c-3.8,0.9-6.9,3.5-8.7,6.9c-3.8,7.1-0.9,12.4,2.6,16.6
				c0,0,7.5,8.7,9.1,22.7c0,0,0,0.5,0.5,0.5s0.5-0.5,0.5-0.5c1.5-14,9.1-22.7,9.1-22.7C48,31.3,50.1,28,50.1,24.1"/>
		</defs>
		<clipPath id="SVGID_22_">
			<use xlink:href="#SVGID_21_"  overflow="visible"/>
		</clipPath>
		<rect x="14.1" y="2" clip-path="url(#SVGID_22_)" fill="#DC4A3D" width="44.1" height="63.5"/>
	</g>
	<g>
		<defs>
			<path id="SVGID_23_" d="M41.4,23.9c0,2.9-2.4,5.3-5.3,5.3c-2.9,0-5.3-2.4-5.3-5.3c0-2.9,2.4-5.3,5.3-5.3
				C39.1,18.6,41.4,21,41.4,23.9"/>
		</defs>
		<clipPath id="SVGID_24_">
			<use xlink:href="#SVGID_23_"  overflow="visible"/>
		</clipPath>
		<rect x="22.7" y="10.4" clip-path="url(#SVGID_24_)" fill="#812A28" width="26.9" height="27"/>
	</g>
</g>
</svg>
